<svg width="20" height="20" viewBox="0 0 20 20" fill="none" xmlns="http://www.w3.org/2000/svg">
<path d="M0.775402 9.68177L4.98162 11.2452L6.62131 16.5042C6.6926 16.8595 7.12036 16.9306 7.40552 16.7174L9.75813 14.7986C9.97201 14.5854 10.3285 14.5854 10.6136 14.7986L14.8198 17.8545C15.105 18.0677 15.5328 17.9255 15.604 17.5702L18.7409 2.64615C18.8122 2.29082 18.4557 1.93549 18.0992 2.07762L0.775402 8.7579C0.347653 8.90004 0.347653 9.53964 0.775402 9.68177ZM6.40745 10.4635L14.6772 5.41776C14.8198 5.34669 14.9624 5.5599 14.8198 5.63096L8.04714 11.9559C7.83327 12.1691 7.61939 12.4534 7.61939 12.8087L7.40552 14.5143C7.40552 14.7275 7.04906 14.7986 6.97777 14.5143L6.12226 11.3874C5.90839 11.032 6.05099 10.6056 6.40745 10.4635Z" fill="white"/>
</svg>
