<svg width="128" height="32" viewBox="0 0 128 32" fill="none" xmlns="http://www.w3.org/2000/svg">
<path fill-rule="evenodd" clip-rule="evenodd" d="M19.4502 18.0254C19.4502 21.562 21.4686 23.9963 24.542 23.9963C25.8264 24.0422 27.065 23.4451 27.8448 22.3428H27.8907C27.8907 22.3887 27.8907 22.4347 27.8907 22.4806V22.6184C27.8907 23.3533 28.3035 23.7207 29.0834 23.7207H30.2302C30.8265 23.8125 31.3769 23.3992 31.4228 22.8021C31.4228 22.7102 31.4228 22.6184 31.4228 22.5265V9.20695C31.5146 8.60986 31.1017 8.05871 30.5054 8.01278C30.4136 8.01278 30.3219 8.01278 30.2302 8.01278H28.854C28.2576 7.92092 27.7072 8.33429 27.6613 8.93137C27.6613 9.02323 27.6613 9.11509 27.6613 9.20695V12.7435C27.6613 13.0191 27.6613 13.2488 27.6613 13.2488H27.6155C27.6155 13.2488 26.9274 12.1465 24.6338 12.1465C21.6062 12.1005 19.4502 14.4429 19.4502 18.0254ZM23.3035 18.0254C23.3035 16.2801 24.3585 15.3156 25.5053 15.3156C27.0191 15.3156 27.7072 16.6476 27.7072 18.0254C27.7072 20.0004 26.6063 20.8271 25.5053 20.8271C24.175 20.8271 23.3035 19.7248 23.3035 18.0254ZM34.955 10.9523H36.2394C36.8358 11.0441 37.3862 10.6308 37.4321 10.0337C37.4321 9.94182 37.4321 9.84996 37.4321 9.7581V9.20695C37.5238 8.60986 37.111 8.05871 36.5146 8.01278C36.4229 8.01278 36.3311 8.01278 36.2394 8.01278H34.955C34.3586 7.92092 33.8082 8.33429 33.7623 8.93137C33.7623 9.02323 33.7623 9.11509 33.7623 9.20695V9.7581C33.6706 10.3552 34.0834 10.9063 34.6798 10.9523C34.7715 10.9523 34.8632 10.9523 34.955 10.9523ZM33.7164 22.5265C33.6247 23.1236 34.0375 23.6748 34.6339 23.7207C34.7256 23.7207 34.8174 23.7207 34.9091 23.7207H36.2853C36.8816 23.8125 37.4321 23.3992 37.4779 22.8021C37.4779 22.7102 37.4779 22.6184 37.4779 22.5265V13.5703C37.5697 12.9732 37.1568 12.422 36.5605 12.3761C36.4688 12.3761 36.377 12.3761 36.2853 12.3761H34.9091C34.3128 12.2842 33.7623 12.6976 33.7164 13.2947C33.7164 13.3866 33.7164 13.4784 33.7164 13.5703V22.5265ZM39.7715 22.5265C39.6796 23.1236 40.0927 23.6748 40.6891 23.7207C40.7806 23.7207 40.8724 23.7207 40.9643 23.7207H42.3405C42.9369 23.8125 43.4873 23.3992 43.5333 22.8021C43.5333 22.7102 43.5333 22.6184 43.5333 22.5265V18.6225C43.5333 17.015 44.313 15.5912 46.0103 15.5912C46.836 15.5912 47.2487 16.0504 47.2487 17.1068V22.5724C47.1568 23.1696 47.5699 23.7207 48.1663 23.7666C48.2577 23.7666 48.3496 23.7666 48.4415 23.7666H49.8176C50.414 23.8585 50.9645 23.4451 51.0101 22.848C51.0101 22.7562 51.0101 22.6643 51.0101 22.5724V16.372C51.0101 13.1569 49.2212 12.1005 46.9275 12.1005C45.4599 12.0546 44.0837 12.7894 43.3036 14.0755H43.258C43.258 14.0755 43.258 13.8918 43.258 13.7999V13.6162C43.3495 13.0191 42.9369 12.468 42.3405 12.422C42.2486 12.422 42.1567 12.422 42.0652 12.422H40.8265C40.2301 12.3302 39.6796 12.7435 39.6341 13.3406C39.6341 13.4325 39.6341 13.5243 39.6341 13.6162L39.7715 22.5265ZM52.57 18.0254C52.57 21.0568 54.7718 23.9963 58.8084 23.9963C60.1846 23.9963 61.5148 23.6288 62.7076 22.9858C63.3499 22.6184 63.4873 22.0213 63.1206 21.3324L62.7995 20.7812C62.4324 20.0923 61.8819 20.0004 61.1481 20.3219C60.5057 20.6434 59.8178 20.8271 59.0836 20.8731C57.7994 20.9649 56.6984 20.0923 56.4232 18.8522H62.3864C63.0747 18.8522 63.6252 18.301 63.6711 17.6121C63.6711 14.5807 61.79 12.1924 58.4417 12.1924C54.8177 12.1005 52.57 14.7185 52.57 18.0254ZM56.5147 16.6016C56.6984 15.683 57.2489 14.9022 58.3498 14.9022C59.2215 14.9022 59.9093 15.6371 59.9093 16.4638C59.9093 16.5098 59.9093 16.5557 59.9093 16.6016H56.5147ZM65.2765 22.5265C65.1847 23.1236 65.5977 23.6748 66.1937 23.7207C66.2856 23.7207 66.3775 23.7207 66.469 23.7207H67.8451C68.4415 23.8125 68.992 23.3992 69.0379 22.8021C69.0379 22.7102 69.0379 22.6184 69.0379 22.5265V19.3114C69.0379 17.4743 69.9095 15.9127 71.7443 15.9127C72.3407 16.0045 72.8912 15.5912 72.9371 14.9941C72.9371 14.9022 72.9371 14.8104 72.9371 14.7185V13.4784C72.9371 12.6976 72.6619 12.2842 71.8821 12.2842C70.46 12.2842 69.2213 13.8458 68.8545 15.04H68.8086C68.8546 14.8104 68.8545 14.5807 68.8545 14.3511V13.6621C68.946 13.065 68.5334 12.5139 67.937 12.468C67.8451 12.468 67.7536 12.468 67.6618 12.468H66.4234C65.827 12.3761 65.2765 12.7894 65.2306 13.3866C65.2306 13.4784 65.2306 13.5703 65.2306 13.6621L65.2765 22.5265ZM75.4142 10.9523H76.6985C77.2949 11.0441 77.8453 10.6308 77.8913 10.0337C77.8913 9.94182 77.8913 9.84996 77.8913 9.7581V9.20695C77.9831 8.60986 77.5701 8.05871 76.9737 8.01278C76.8822 8.01278 76.7903 8.01278 76.6985 8.01278H75.4142C74.8178 7.92092 74.2673 8.33429 74.2214 8.93137C74.2214 9.02323 74.2214 9.11509 74.2214 9.20695V9.7581C74.1299 10.3552 74.5425 10.9063 75.1389 10.9523C75.2308 10.9523 75.3223 10.9523 75.4142 10.9523ZM74.1758 22.5265C74.084 23.1236 74.4966 23.6748 75.093 23.7207C75.1849 23.7207 75.2767 23.7207 75.3682 23.7207H76.7444C77.3408 23.8125 77.8913 23.3533 77.9372 22.8021C77.9372 22.7102 77.9372 22.6184 77.9372 22.5265V13.5703C78.0291 12.9732 77.616 12.422 77.0196 12.3761C76.9281 12.3761 76.8363 12.3761 76.7444 12.3761H75.3682C74.7718 12.2842 74.2214 12.6976 74.1758 13.2947C74.1758 13.3866 74.1758 13.4784 74.1758 13.5703V22.5265ZM79.4508 20.5515C79.4508 22.5265 80.9647 23.9963 83.1666 23.9963C84.4968 23.9963 85.7815 23.3073 86.5153 22.205H86.5612C86.5612 22.2969 86.5612 22.3428 86.5612 22.4347V22.5265C86.4694 23.1236 86.882 23.6748 87.4784 23.7666C87.5703 23.7666 87.6622 23.7666 87.7996 23.7666H88.8546C89.451 23.8585 90.0014 23.3992 90.0474 22.8021C90.0474 22.7102 90.0474 22.6184 90.0474 22.5265V16.7394C90.0474 13.8458 88.1208 12.1005 85.0013 12.1005C83.6711 12.1005 82.3868 12.422 81.194 12.9732C80.6436 13.2028 80.3683 13.8458 80.5976 14.4429C80.6436 14.4889 80.6436 14.5807 80.6895 14.6266L80.9647 15.1778C81.3318 15.8667 81.8823 16.0045 82.6161 15.729C83.2585 15.4075 83.9464 15.2697 84.6802 15.2237C85.5062 15.2237 86.286 15.5452 86.286 16.4638V16.6476H85.9648C83.0747 16.6476 79.4508 17.4743 79.4508 20.5515ZM83.2125 20.1841C83.2125 19.1277 84.7261 18.8522 85.873 18.8522H86.2401V19.1737C86.1941 20.23 85.3684 21.1027 84.3135 21.1946C83.763 21.2405 83.304 20.8731 83.2585 20.3219C83.2125 20.276 83.2125 20.23 83.2125 20.1841Z" fill="#76B82B"/>
<path fill-rule="evenodd" clip-rule="evenodd" d="M91.9273 22.5261C91.8358 23.1232 92.2484 23.6743 92.8448 23.7203C92.9367 23.7203 93.0282 23.7203 93.12 23.7203H94.3129C94.9093 23.8121 95.4597 23.3988 95.5053 22.8017C95.5053 22.7098 95.5053 22.618 95.5053 22.5261V21.3319C95.5971 20.7348 95.1845 20.1837 94.5881 20.1378C94.4962 20.1378 94.4043 20.1378 94.3129 20.1378H93.12C92.5237 20.0459 91.9732 20.4593 91.9273 21.0563C91.9273 21.1482 91.9273 21.2401 91.9273 21.3319V22.5261ZM97.6156 22.5261C97.5238 23.1232 97.9368 23.6743 98.5332 23.7203C98.6247 23.7203 98.7166 23.7203 98.8084 23.7203H100.185C100.781 23.8121 101.331 23.3988 101.377 22.8017C101.377 22.7098 101.377 22.618 101.377 22.5261V18.9436C101.377 17.382 101.836 15.5907 103.579 15.5907C104.313 15.5907 104.45 16.1878 104.45 17.0146V22.5261C104.359 23.1232 104.772 23.6743 105.368 23.7203C105.46 23.7203 105.551 23.7203 105.643 23.7203H107.019C107.616 23.8121 108.166 23.3988 108.212 22.8017C108.212 22.7098 108.212 22.618 108.212 22.5261V18.9436C108.212 17.2442 108.762 15.5907 110.414 15.5907C111.148 15.5907 111.285 16.1878 111.285 17.0146V22.5261C111.194 23.1232 111.606 23.6743 112.203 23.7203C112.295 23.7203 112.386 23.7203 112.478 23.7203H113.854C114.451 23.8121 115.001 23.3988 115.047 22.8017C115.047 22.7098 115.047 22.618 115.047 22.5261V16.3715C115.047 13.2483 113.442 12.1001 111.377 12.1001C109.909 12.1001 108.579 12.835 107.753 14.0291H107.799C107.249 12.789 105.964 12.0541 104.634 12.1001C103.258 12.146 101.973 12.8809 101.286 14.075H101.24C101.24 14.075 101.24 13.8913 101.24 13.7995V13.6158C101.331 13.0187 100.918 12.4675 100.322 12.4216C100.23 12.4216 100.139 12.4216 100.047 12.4216H98.8084C98.212 12.3297 97.6616 12.7431 97.6156 13.3402C97.6156 13.432 97.6156 13.5239 97.6156 13.6158V22.5261ZM116.882 22.2965C116.331 23.1232 116.698 23.7662 117.708 23.7662H119.176C119.772 23.8121 120.368 23.4447 120.598 22.8935L121.469 21.1941C121.561 21.0104 121.744 20.643 121.744 20.643H121.79C121.79 20.643 121.928 21.0104 122.065 21.1941L122.983 22.8935C123.258 23.4447 123.809 23.7662 124.405 23.7662H125.873C126.882 23.7662 127.203 23.1232 126.699 22.2965L124.038 18.1169L126.744 13.8454C127.295 13.0187 126.928 12.3757 125.919 12.3757H124.359C123.763 12.3297 123.166 12.6972 122.937 13.2483L122.157 14.9018C122.019 15.1773 121.79 15.6367 121.79 15.6367H121.744C121.744 15.6367 121.561 15.1773 121.377 14.9018L120.598 13.2483C120.368 12.6972 119.772 12.3297 119.176 12.3757H117.616C116.607 12.3757 116.285 13.0187 116.79 13.8454L119.542 18.1169L116.882 22.2965Z" fill="#F27028"/>
<path fill-rule="evenodd" clip-rule="evenodd" d="M3.48628 8.28861C5.41291 8.28861 6.97254 9.85021 6.97254 11.7793C6.97254 13.7083 5.41291 15.2699 3.48628 15.2699C1.55965 15.2699 0 13.6624 0 11.7333C0 9.85021 1.55965 8.28861 3.48628 8.28861ZM12.1102 16.9693C14.0369 16.9693 15.5965 18.5309 15.5965 20.4599C15.5965 22.389 14.0369 23.9506 12.1102 23.9506C10.1836 23.9506 8.62397 22.389 8.62397 20.4599C8.66983 18.5309 10.2295 16.9693 12.1102 16.9693ZM3.48628 16.9693C5.41291 16.9693 6.97254 18.5309 6.97254 20.4599C6.97254 22.389 5.41291 23.9506 3.48628 23.9506C1.55965 23.9506 0 22.3431 0 20.414C0 18.5309 1.55965 16.9693 3.48628 16.9693ZM12.1102 8.24268C14.0369 8.24268 15.5965 9.80428 15.5965 11.7333C15.5965 13.6624 14.0369 15.224 12.1102 15.224C10.1836 15.224 8.62397 13.6624 8.62397 11.7333C8.66983 9.80428 10.2295 8.24268 12.1102 8.24268Z" fill="#F27028"/>
</svg>
