<svg width="128" height="32" viewBox="0 0 128 32" fill="none" xmlns="http://www.w3.org/2000/svg">
<path d="M77.0803 4.33693L67.8778 21.8093C67.6816 22.1829 67.1109 22.1829 66.9147 21.8093L57.7122 4.33693C57.623 4.159 57.4447 4.05225 57.2485 4.05225H52.7899C52.4867 4.05225 52.2906 4.37251 52.4332 4.6394L66.9325 31.7197C67.1287 32.0934 67.6638 32.0934 67.8778 31.7197L82.3771 4.6394C82.5198 4.37251 82.3236 4.05225 82.0204 4.05225H77.5618C77.3478 4.05225 77.1695 4.159 77.0803 4.33693Z" fill="#004481"/>
<path d="M82.3052 27.6631L91.5077 10.1907C91.7039 9.81707 92.2746 9.81707 92.4708 10.1907L101.673 27.6631C101.762 27.841 101.941 27.9477 102.137 27.9477H106.596C106.899 27.9477 107.095 27.6275 106.952 27.3606L92.453 0.280234C92.2568 -0.0934112 91.7218 -0.0934112 91.5077 0.280234L77.0084 27.3606C76.8658 27.6275 77.0619 27.9477 77.3651 27.9477H81.8237C82.0199 27.9299 82.2161 27.8232 82.3052 27.6631Z" fill="#004481"/>
<path d="M19.4038 16.9341C21.3299 15.9733 22.5248 13.8915 22.5248 11.3472C22.5248 6.988 19.1184 4.03442 14.321 4.03442H0.53503C0.231846 4.03442 0 4.26573 0 4.5682V31.4528C0 31.7553 0.231846 31.9866 0.53503 31.9866H13.7324C20.3311 31.9866 23.8088 29.1576 23.8088 23.6063C23.8088 18.1973 19.4038 16.9341 19.4038 16.9341ZM5.17196 8.09114H13.3579C16.3719 8.09114 17.9057 9.37221 17.9057 11.7564C17.9057 14.1406 16.3719 15.4217 13.3579 15.4217H5.17196C4.88661 15.4217 4.63693 15.1904 4.63693 14.8879V8.62492C4.63693 8.32244 4.86877 8.09114 5.17196 8.09114ZM13.4649 27.9299H5.17196C4.86877 27.9299 4.63693 27.6986 4.63693 27.3961V19.9766C4.63693 19.6919 4.86877 19.4428 5.17196 19.4428H13.4649C17.4241 19.4428 19.1897 20.5638 19.1897 23.6775C19.1719 26.8268 17.4598 27.9299 13.4649 27.9299Z" fill="#004481"/>
<path d="M47.7072 16.9341C49.6333 15.9733 50.8282 13.8915 50.8282 11.3472C50.8282 6.988 47.4219 4.03442 42.6244 4.03442H28.8207C28.5175 4.03442 28.2856 4.26573 28.2856 4.5682V31.4528C28.2856 31.7553 28.5175 31.9866 28.8207 31.9866H42.0181C48.6168 31.9866 52.0945 29.1576 52.0945 23.6063C52.1123 18.1973 47.7072 16.9341 47.7072 16.9341ZM33.4754 8.09114H41.6614C44.6754 8.09114 46.2092 9.37221 46.2092 11.7564C46.2092 14.1406 44.6754 15.4217 41.6614 15.4217H33.4754C33.1723 15.4217 32.9404 15.1904 32.9404 14.8879V8.62492C32.9404 8.32244 33.1723 8.09114 33.4754 8.09114ZM41.7506 27.9299H33.4576C33.1723 27.9299 32.9226 27.6986 32.9226 27.3961V19.9766C32.9226 19.6919 33.1544 19.4428 33.4576 19.4428H41.7506C45.7098 19.4428 47.4754 20.5638 47.4754 23.6775C47.4754 26.8268 45.7455 27.9299 41.7506 27.9299Z" fill="#004481"/>
</svg>
