<svg width="25" height="24" viewBox="0 0 25 24" fill="none" xmlns="http://www.w3.org/2000/svg">
<g clip-path="url(#clip0_4575_625)">
<path d="M14.581 11.41L11.581 9.061C9.767 7.643 7.233 7.642 5.419 9.061L2.419 11.409C1.199 12.364 0.5 13.799 0.5 15.347V19.499C0.5 21.98 2.519 23.999 5 23.999H12C14.481 23.999 16.5 21.98 16.5 19.499V15.347C16.5 13.799 15.801 12.366 14.581 11.41ZM10.5 18C10.5 18.552 10.052 19 9.5 19H7.5C6.948 19 6.5 18.552 6.5 18V16C6.5 15.448 6.948 15 7.5 15H9.5C10.052 15 10.5 15.448 10.5 16V18ZM19.5 0H15.5C12.743 0 10.5 2.243 10.5 5V6.306C11.319 6.551 12.106 6.933 12.812 7.485L15.814 9.836C17.521 11.172 18.5 13.182 18.5 15.348V18C18.5 17.447 18.947 17 19.5 17H20.5C21.053 17 21.5 17.447 21.5 18C21.5 18.553 21.053 19 20.5 19H19.5C18.947 19 18.5 18.553 18.5 18V19.5C18.5 21.246 17.804 22.831 16.679 24H19.5C22.257 24 24.5 21.757 24.5 19V5C24.5 2.243 22.257 0 19.5 0ZM15.5 7H14.5C13.947 7 13.5 6.553 13.5 6C13.5 5.447 13.947 5 14.5 5H15.5C16.053 5 16.5 5.447 16.5 6C16.5 6.553 16.053 7 15.5 7ZM20.5 15H19.5C18.947 15 18.5 14.553 18.5 14C18.5 13.447 18.947 13 19.5 13H20.5C21.053 13 21.5 13.447 21.5 14C21.5 14.553 21.053 15 20.5 15ZM20.5 11H19.5C18.947 11 18.5 10.553 18.5 10C18.5 9.447 18.947 9 19.5 9H20.5C21.053 9 21.5 9.447 21.5 10C21.5 10.553 21.053 11 20.5 11ZM20.5 7H19.5C18.947 7 18.5 6.553 18.5 6C18.5 5.447 18.947 5 19.5 5H20.5C21.053 5 21.5 5.447 21.5 6C21.5 6.553 21.053 7 20.5 7Z" fill="#6A47F7"/>
</g>
<defs>
<clipPath id="clip0_4575_625">
<rect width="24" height="24" fill="white" transform="translate(0.5)"/>
</clipPath>
</defs>
</svg>
