<svg width="25" height="24" viewBox="0 0 25 24" fill="none" xmlns="http://www.w3.org/2000/svg">
<g clip-path="url(#clip0_4575_503)">
<path d="M9.5 4C9.5 1.791 12.858 0 17 0C21.142 0 24.5 1.791 24.5 4C24.5 6.209 21.142 8 17 8C12.858 8 9.5 6.209 9.5 4ZM17 10C15.973 10 14.999 9.885 14.109 9.685C12.75 8.666 10.523 8 8 8C3.858 8 0.5 9.791 0.5 12C0.5 14.209 3.858 16 8 16C12.142 16 15.5 14.209 15.5 12C15.5 11.971 15.493 11.943 15.492 11.914H15.5V14C15.5 16.209 12.142 18 8 18C3.858 18 0.5 16.209 0.5 14V16C0.5 18.209 3.858 20 8 20C12.142 20 15.5 18.209 15.5 16V18C15.5 20.209 12.142 22 8 22C3.858 22 0.5 20.209 0.5 18V20C0.5 22.209 3.858 24 8 24C12.142 24 15.5 22.209 15.5 20V19.92C15.985 19.972 16.486 20 17 20C21.142 20 24.5 18.209 24.5 16V14C24.5 16.119 21.408 17.849 17.5 17.987V15.987C21.408 15.849 24.5 14.12 24.5 12V10C24.5 12.119 21.408 13.849 17.5 13.987V11.987C21.408 11.849 24.5 10.12 24.5 8V6C24.5 8.209 21.142 10 17 10Z" fill="#6A47F7"/>
</g>
<defs>
<clipPath id="clip0_4575_503">
<rect width="24" height="24" fill="white" transform="translate(0.5)"/>
</clipPath>
</defs>
</svg>
