<svg width="25" height="24" viewBox="0 0 25 24" fill="none" xmlns="http://www.w3.org/2000/svg">
<g clip-path="url(#clip0_4575_638)">
<path d="M10.5 22V21.5C10.5 20.121 9.379 19 8 19H7.127C7.79 17.747 8.5 15.236 8.5 14.5C8.5 13.119 7.381 12.05 6 12.05C4.619 12.05 3.5 13.119 3.5 14.5C3.5 15.236 4.21 17.747 4.873 19H4C2.621 19 1.5 20.121 1.5 21.5V22H0.5V24H11.5V22H10.5ZM19.5 17.5C19.5 18.327 18.827 19 18 19C17.173 19 16.5 18.327 16.5 17.5C16.5 16.673 17.173 16 18 16C18.827 16 19.5 16.673 19.5 17.5ZM21.5 0H9.5C7.846 0 6.5 1.346 6.5 3V10.05L6.505 10.101C8.746 10.353 10.5 12.218 10.5 14.5C10.5 15.13 10.246 16.273 9.89 17.416C10.982 17.924 11.838 18.856 12.244 20H13.501V24H24.501V3C24.501 1.346 23.154 0 21.5 0ZM10.5 5H20.5V7H10.5V5ZM10.5 11V9H18.5V11H10.5ZM18 21C16.07 21 14.5 19.43 14.5 17.5C14.5 15.57 16.07 14 18 14C19.93 14 21.5 15.57 21.5 17.5C21.5 19.43 19.93 21 18 21Z" fill="#6A47F7"/>
</g>
<defs>
<clipPath id="clip0_4575_638">
<rect width="24" height="24" fill="white" transform="translate(0.5)"/>
</clipPath>
</defs>
</svg>
