<svg width="128" height="32" viewBox="0 0 128 32" fill="none" xmlns="http://www.w3.org/2000/svg">
<mask id="mask0_225_2402" style="mask-type:luminance" maskUnits="userSpaceOnUse" x="0" y="3" width="127" height="26">
<path d="M126.224 3H0V29H126.224V3Z" fill="white"/>
</mask>
<g mask="url(#mask0_225_2402)">
<path fill-rule="evenodd" clip-rule="evenodd" d="M38.6596 21.2049V10.7951C38.6596 6.50285 35.1451 3 30.8387 3H28.9824V7.66224C28.9824 14.1006 23.7107 19.3548 17.251 19.3548H12.5732V21.2049C12.5732 25.4972 16.0877 29 20.3942 29H30.8139C35.1451 29 38.6596 25.4972 38.6596 21.2049Z" fill="#A5CD39"/>
<path fill-rule="evenodd" clip-rule="evenodd" d="M25.0716 7.66224V3H20.3938C16.0874 3 12.5729 6.50285 12.5729 10.7951V15.4326H17.2259C21.5571 15.4573 25.0716 11.9545 25.0716 7.66224ZM3.31647 6.60152H0V9.90702C0 12.9658 2.49973 15.4573 5.56871 15.4573H8.88518V12.1271C8.88518 9.06831 6.38545 6.60152 3.31647 6.60152Z" fill="#006D38"/>
<path d="M66.6508 10.7459V28.2356C66.6508 28.2356 66.7498 28.9263 67.4428 28.9263H70.3881C70.3881 28.9263 71.0563 28.8769 71.0563 28.1862V10.7459C71.0563 10.7459 71.0811 9.9319 70.2643 9.9319H67.3191C67.3191 9.90723 66.6508 9.8579 66.6508 10.7459ZM77.5903 9.9319H74.9915C74.9915 9.9319 74.051 9.8579 74.249 10.7459C74.447 11.634 78.6298 26.4347 78.6298 26.4347C78.6298 26.4347 79.4712 28.8769 82.6392 28.8769C85.7824 28.8769 86.4754 26.4841 86.4754 26.4841L90.8809 10.9926C90.8809 10.9926 91.2274 9.8579 90.4107 9.8579H87.2427C87.2427 9.8579 86.5249 9.9319 86.3517 10.6966C86.1784 11.4613 83.159 24.8067 83.159 24.8067C83.159 24.8067 83.0847 25.3 82.6145 25.3C82.1442 25.3 81.971 24.7327 81.971 24.7327L78.7782 10.7213C78.803 10.7459 78.6792 9.88257 77.5903 9.9319ZM49.722 9.9319H47.0985C47.0985 9.9319 46.158 9.8579 46.356 10.7459C46.554 11.634 50.7367 26.4594 50.7367 26.4594C50.7367 26.4594 51.5782 28.9263 54.7462 28.9263C57.9142 28.9263 58.5824 26.5334 58.5824 26.5334L62.9879 11.0173C62.9879 11.0173 63.3344 9.88257 62.5176 9.88257H59.3744C59.3744 9.88257 58.6567 9.95657 58.4834 10.7213C58.3102 11.486 55.2907 24.856 55.2907 24.856C55.2907 24.856 55.2164 25.3494 54.7462 25.3494C54.2759 25.3494 54.1027 24.782 54.1027 24.782L50.91 10.7459C50.91 10.7459 50.7862 9.88257 49.722 9.9319ZM93.8014 10.5733V22.2412C93.8014 22.2412 94.0489 28.9016 101.548 28.9016C109.047 28.9016 109.146 22.5865 109.146 22.5865V10.6719C109.146 10.6719 109.245 9.90723 108.404 9.90723H105.483C105.483 9.90723 104.84 9.75923 104.84 10.6473V22.6852C104.84 22.6852 104.469 25.1767 101.573 25.1767C98.6771 25.2013 98.2563 22.6359 98.2563 22.6359V10.9186C98.2563 10.9186 98.3306 9.88257 97.4891 9.88257H94.4449C94.4201 9.88257 93.8014 9.88257 93.8014 10.5733ZM124.59 13.6321C124.59 13.6321 121.001 13.2867 119.492 13.3361C118.007 13.3607 117.091 13.5334 117.091 14.6188C117.091 15.7042 118.427 16.1729 119.467 16.7896C120.655 17.4803 123.402 19.0097 124.219 19.7497C125.036 20.4898 126.1 21.6245 126.1 23.6719C126.1 25.7194 125.011 27.6681 123.006 28.3836C121.001 29.0989 117.264 28.9263 115.73 28.6796C114.195 28.4329 113.799 28.3342 113.527 28.2356C113.255 28.1369 112.883 27.9395 112.883 27.3475V25.6947C112.883 25.6947 112.859 24.7573 113.898 24.9547C114.962 25.152 117.734 25.522 119.17 25.448C120.605 25.374 121.571 25.2507 121.694 24.0173C121.793 22.7839 120.308 22.3152 118.848 21.3532C117.388 20.4158 116.076 19.7497 114.938 18.837C113.824 17.9243 112.76 16.2222 112.76 14.3721C112.76 12.522 114.047 9.83323 118.972 9.83323C123.254 9.83323 124.887 10.3019 125.11 10.3759C125.357 10.4499 125.654 10.5979 125.654 11.1406C125.654 11.6833 125.654 12.9907 125.654 12.9907C125.654 12.9907 125.753 13.7801 124.59 13.6321ZM66.6508 3.86359V6.67573C66.6508 6.67573 66.7251 7.39111 67.3438 7.39111H70.3138C70.3138 7.39111 71.0563 7.44044 71.0563 6.65107V3.86359C71.0563 3.86359 71.1801 3.07422 70.1406 3.07422H67.5418C66.5518 3.07422 66.6508 3.86359 66.6508 3.86359Z" fill="#65696E"/>
</g>
</svg>
