<svg width="128" height="33" viewBox="0 0 128 33" fill="none" xmlns="http://www.w3.org/2000/svg">
<path d="M127.508 29.3137C127.51 29.8081 127.365 30.2919 127.093 30.7037C126.82 31.1155 126.431 31.4368 125.976 31.6269C125.521 31.817 125.019 31.8672 124.536 31.7712C124.052 31.6752 123.607 31.4373 123.259 31.0877C122.91 30.7382 122.672 30.2927 122.577 29.8077C122.481 29.3228 122.531 28.8202 122.721 28.3638C122.91 27.9074 123.231 27.5178 123.642 27.2443C124.052 26.9708 124.535 26.8258 125.028 26.8277C125.355 26.8252 125.678 26.8877 125.98 27.0118C126.282 27.1358 126.557 27.3189 126.787 27.5502C127.018 27.7816 127.201 28.0566 127.325 28.3594C127.449 28.6622 127.511 28.9866 127.508 29.3137ZM127.046 29.3137C127.037 28.9135 126.91 28.525 126.681 28.1969C126.452 27.8687 126.132 27.6156 125.76 27.4693C125.389 27.323 124.982 27.29 124.592 27.3744C124.201 27.4589 123.844 27.657 123.566 27.944C123.287 28.2309 123.1 28.5939 123.026 28.9874C122.953 29.3809 122.997 29.7874 123.153 30.1558C123.309 30.5242 123.571 30.8383 123.904 31.0584C124.238 31.2786 124.629 31.3951 125.028 31.3933C125.299 31.3961 125.567 31.3437 125.817 31.2395C126.067 31.1352 126.293 30.9812 126.482 30.7867C126.67 30.5923 126.818 30.3615 126.915 30.1083C127.012 29.8551 127.056 29.5848 127.046 29.3137ZM125.255 28.066C125.36 28.054 125.466 28.0644 125.567 28.0964C125.668 28.1285 125.761 28.1814 125.84 28.2519C125.92 28.3223 125.983 28.4086 126.027 28.5052C126.07 28.6019 126.093 28.7067 126.094 28.8128C126.098 28.9767 126.047 29.1373 125.95 29.2691C125.852 29.401 125.714 29.4965 125.557 29.5406L126.169 30.5615H125.613L125.047 29.6162H124.613V30.5615H124.133V28.066H125.255ZM124.613 29.2192H125.151C125.405 29.2192 125.594 29.0963 125.594 28.8411C125.594 28.5859 125.424 28.463 125.151 28.463H124.613V29.2192Z" fill="#008AD7"/>
<path d="M114.401 13.8199C114.379 13.6109 114.404 13.3998 114.473 13.2016C114.542 13.0033 114.654 12.8228 114.801 12.6729C114.948 12.5231 115.126 12.4075 115.322 12.3345C115.519 12.2615 115.729 12.233 115.938 12.2507H117.607C117.816 12.2332 118.026 12.2619 118.224 12.3348C118.421 12.4077 118.599 12.5231 118.746 12.6727C118.894 12.8224 119.007 13.0027 119.077 13.201C119.147 13.3992 119.174 13.6105 119.154 13.8199V14.2925C119.175 14.5027 119.15 14.7151 119.08 14.9145C119.011 15.1138 118.898 15.2954 118.751 15.4461C118.603 15.5969 118.424 15.7131 118.226 15.7866C118.028 15.86 117.817 15.8889 117.607 15.8711H115.938C115.728 15.8891 115.517 15.8604 115.32 15.7869C115.123 15.7134 114.944 15.5969 114.797 15.446C114.65 15.295 114.539 15.1133 114.47 14.9138C114.401 14.7144 114.377 14.5022 114.401 14.2925V13.8199Z" fill="#00CD00"/>
<path d="M50.974 25.6072C50.974 27.9419 52.0206 28.8967 53.52 28.8967C54.9291 28.7316 56.2196 28.0271 57.1224 26.9305V17.752C57.1187 17.6421 57.1368 17.5325 57.1768 17.43C57.2164 17.3274 57.2764 17.234 57.3528 17.1553C57.4295 17.0767 57.5217 17.0144 57.6227 16.9724C57.7241 16.9303 57.833 16.9094 57.9428 16.9107H60.9416C61.0505 16.9107 61.1585 16.9326 61.2585 16.9752C61.3591 17.0178 61.4498 17.0802 61.5252 17.1587C61.601 17.2373 61.6602 17.3303 61.6992 17.4322C61.7383 17.5341 61.7565 17.6429 61.7528 17.752V31.0802C61.7579 31.1901 61.7407 31.2999 61.702 31.4029C61.6639 31.506 61.6048 31.6001 61.5289 31.6796C61.4531 31.7592 61.3619 31.8225 61.2609 31.8657C61.1599 31.9089 61.0515 31.9311 60.9416 31.931H57.9898C57.88 31.931 57.7707 31.9088 57.6692 31.8658C57.5678 31.8227 57.4761 31.7595 57.3998 31.6801C57.323 31.6008 57.2634 31.5067 57.2239 31.4036C57.1843 31.3006 57.1657 31.1906 57.1694 31.0802V30.22C55.912 31.4665 54.2227 32.1778 52.4544 32.2051C48.8897 32.2051 46.3625 30.2673 46.3625 25.5882V17.752C46.36 17.6424 46.3794 17.5334 46.4195 17.4315C46.4595 17.3295 46.5196 17.2366 46.5959 17.1582C46.6727 17.0799 46.7639 17.0176 46.8644 16.9751C46.9654 16.9326 47.0734 16.9107 47.1827 16.9107H50.1722C50.2825 16.9094 50.3919 16.9304 50.4938 16.9723C50.5957 17.0142 50.6878 17.0763 50.7655 17.1548C50.8428 17.2333 50.9038 17.3267 50.9442 17.4293C50.9852 17.5319 51.0047 17.6416 51.0024 17.752L50.974 25.6072Z" fill="#008AD7"/>
<path d="M68.2682 25.5132C68.4659 27.7535 69.4469 28.746 71.7007 28.746C72.1809 28.7829 72.6635 28.7177 73.1168 28.5548C73.57 28.3919 73.9842 28.135 74.3314 27.8008C74.5189 27.5655 74.7595 27.3783 75.0331 27.2551C75.3072 27.1317 75.6065 27.0758 75.9066 27.0918H77.9151C78.0249 27.0905 78.1338 27.1115 78.2348 27.1535C78.3363 27.1955 78.4284 27.2578 78.5047 27.3364C78.5815 27.4151 78.6416 27.5085 78.6811 27.6111C78.7211 27.7136 78.7393 27.8232 78.7356 27.9331C78.7356 30.8445 75.8028 31.8559 71.4084 31.8559C66.5235 31.8559 63.5903 29.1619 63.5903 24.0859C63.5903 19.0098 66.476 16.2686 71.3703 16.2686C76.2649 16.2686 79.1884 18.9342 79.1884 23.8307V24.6152C79.1921 24.7251 79.1735 24.8347 79.1339 24.9372C79.0944 25.0398 79.0343 25.1332 78.9575 25.2119C78.8808 25.2905 78.7891 25.3528 78.6876 25.3948C78.5862 25.4369 78.4773 25.4578 78.3679 25.4565L68.2682 25.5132ZM68.2682 22.6207H74.4919C74.4072 20.5222 73.4169 19.3974 71.3893 19.3974C69.3618 19.3974 68.3622 20.5222 68.2491 22.6207H68.2682Z" fill="#008AD7"/>
<path d="M88.5533 31.8559C84.0551 31.8559 81.1978 30.8445 81.1978 27.9331C81.1936 27.8232 81.2122 27.7136 81.2518 27.6111C81.2914 27.5085 81.3514 27.4151 81.4282 27.3364C81.505 27.2578 81.5966 27.1955 81.6981 27.1535C81.7995 27.1115 81.9084 27.0905 82.0183 27.0918H84.0268C84.3218 27.084 84.615 27.1458 84.8816 27.2723C85.1487 27.3987 85.3824 27.5862 85.5638 27.8196C85.9157 28.1561 86.3345 28.4142 86.7929 28.5771C87.2513 28.74 87.7385 28.804 88.2234 28.7649C90.5335 28.7649 91.2976 28.2261 91.2976 27.4415C91.2976 25.1068 81.1694 26.4018 81.1694 20.7302C81.1694 17.5446 84.272 16.2686 88.1666 16.2686C92.6741 16.2686 95.5221 17.28 95.5221 20.2008C95.5249 20.3104 95.5054 20.4194 95.4654 20.5214C95.4254 20.6233 95.3653 20.7162 95.2885 20.7946C95.2122 20.873 95.121 20.9353 95.02 20.9777C94.9195 21.0203 94.8111 21.0422 94.7017 21.0421H92.6648C92.3712 21.0484 92.0803 20.9858 91.8151 20.8595C91.5498 20.7331 91.3176 20.5464 91.137 20.3143C90.7843 19.9766 90.3641 19.7177 89.9038 19.5548C89.444 19.3918 88.9545 19.3285 88.4682 19.369C86.5825 19.369 85.8091 19.8983 85.8091 20.6829C85.8091 23.0177 95.9372 21.6282 95.9372 27.3943C95.9372 30.5987 92.8817 31.8559 88.5533 31.8559Z" fill="#008AD7"/>
<path d="M102.576 22.7908C103.237 22.8448 103.898 22.6921 104.469 22.3535C105.04 22.0149 105.492 21.5072 105.763 20.9002L107.027 18.159C107.189 17.7878 107.451 17.4697 107.785 17.2408C108.118 17.0119 108.509 16.8813 108.913 16.864H111.44C112.147 16.864 112.233 17.4311 111.902 18.159L110.177 21.94C109.915 22.5346 109.526 23.064 109.037 23.4905C108.548 23.917 107.971 24.23 107.348 24.4072C108.573 24.8386 109.585 25.7253 110.177 26.8838L112.459 30.6648C112.892 31.4021 112.704 31.9599 111.987 31.9599H109.46C109.035 31.9405 108.622 31.8111 108.262 31.5841C107.901 31.3572 107.606 31.0404 107.404 30.6648L105.707 27.829C105.381 27.2724 104.915 26.8111 104.355 26.4911C103.797 26.171 103.163 26.0033 102.519 26.0047V31.0146C102.522 31.125 102.502 31.2347 102.461 31.3373C102.421 31.4399 102.36 31.5333 102.282 31.6118C102.205 31.6903 102.112 31.7524 102.011 31.7943C101.909 31.8362 101.8 31.8572 101.689 31.8559H98.6999C98.591 31.8559 98.4835 31.834 98.3829 31.7914C98.2829 31.7488 98.1921 31.6863 98.1163 31.6078C98.0404 31.5293 97.9813 31.4363 97.9422 31.3344C97.9032 31.2325 97.885 31.1237 97.8892 31.0146V13.4327C97.8836 13.3232 97.9013 13.2139 97.9394 13.1113C97.9781 13.0088 98.0372 12.9153 98.113 12.8365C98.1893 12.7577 98.2806 12.6953 98.3815 12.6531C98.4821 12.611 98.5905 12.59 98.6999 12.5914H101.689C101.8 12.5901 101.909 12.611 102.011 12.653C102.112 12.6949 102.205 12.757 102.282 12.8355C102.36 12.914 102.421 13.0074 102.461 13.1099C102.502 13.2125 102.522 13.3223 102.519 13.4327L102.576 22.7908Z" fill="#008AD7"/>
<path d="M34.4708 22.7908C35.1319 22.8448 35.7935 22.6921 36.3644 22.3535C36.9352 22.0149 37.3873 21.5072 37.6582 20.9002L38.9407 18.0645C39.1045 17.6946 39.3676 17.3777 39.7006 17.149C40.0337 16.9204 40.4236 16.7889 40.8268 16.7694H43.3541C44.0614 16.7694 44.1462 17.3366 43.8162 18.0645L42.081 21.8455C41.8218 22.4416 41.4335 22.9723 40.9441 23.399C40.4548 23.8258 39.8767 24.1379 39.2519 24.3126C40.4788 24.7407 41.4927 25.6283 42.081 26.7892L44.3725 30.5703C44.8064 31.3076 44.6177 31.8653 43.901 31.8653H41.4114C40.9863 31.846 40.5735 31.7166 40.2131 31.4896C39.8529 31.2626 39.5574 30.9459 39.3557 30.5703L37.6582 27.7345C37.3328 27.1772 36.8671 26.7154 36.3078 26.3952C35.7484 26.0751 35.1149 25.9078 34.4708 25.9101V31.0146C34.4746 31.1245 34.4561 31.234 34.4165 31.3366C34.3769 31.4392 34.3169 31.5326 34.2402 31.6113C34.1635 31.6899 34.0717 31.7521 33.9703 31.7941C33.8689 31.8362 33.76 31.8572 33.6504 31.8558H30.6421C30.532 31.8571 30.4227 31.8362 30.3208 31.7943C30.2189 31.7523 30.1265 31.6903 30.0491 31.6117C29.9716 31.5332 29.9107 31.4399 29.87 31.3373C29.8294 31.2347 29.8097 31.1249 29.8122 31.0146V13.4327C29.8097 13.3223 29.8294 13.2125 29.87 13.1099C29.9107 13.0073 29.9716 12.914 30.0491 12.8355C30.1265 12.757 30.2189 12.6949 30.3208 12.653C30.4227 12.611 30.532 12.5901 30.6421 12.5914H33.6315C33.7412 12.59 33.85 12.611 33.9514 12.6531C34.0528 12.6951 34.1447 12.7573 34.2214 12.836C34.298 12.9147 34.358 13.0081 34.3977 13.1106C34.4373 13.2132 34.4558 13.3227 34.4519 13.4327L34.4708 22.7908Z" fill="#008AD7"/>
<path d="M115.279 31.856C115.169 31.8561 115.061 31.8342 114.96 31.7917C114.859 31.7492 114.768 31.6869 114.691 31.6085C114.615 31.5301 114.555 31.4372 114.515 31.3353C114.475 31.2333 114.455 31.1243 114.458 31.0147V18.0268C114.455 17.9172 114.475 17.8083 114.515 17.7063C114.555 17.6043 114.615 17.5114 114.691 17.433C114.768 17.3547 114.859 17.2924 114.96 17.2499C115.061 17.2074 115.169 17.1855 115.279 17.1855H118.278C118.387 17.1855 118.495 17.2074 118.596 17.2499C118.696 17.2924 118.788 17.3547 118.864 17.433C118.941 17.5114 119.001 17.6043 119.041 17.7063C119.081 17.8083 119.1 17.9172 119.098 18.0268V31.0147C119.1 31.1243 119.081 31.2333 119.041 31.3353C119.001 31.4372 118.941 31.5301 118.864 31.6085C118.788 31.6869 118.696 31.7492 118.596 31.7917C118.495 31.8342 118.387 31.8561 118.278 31.856H115.279Z" fill="#008AD7"/>
<path d="M18.9851 19.7564C18.9851 20.1629 18.193 27.2335 17.8252 30.7499C17.7738 31.0817 17.5975 31.3812 17.3328 31.5869C17.0679 31.7925 16.7346 31.8888 16.4012 31.8558H4.43421C3.17999 31.8558 2.73677 31.3075 2.61417 30.6364C2.49158 29.9653 1.83146 23.3106 1.5014 20.9947L1.4071 19.7848C1.38895 19.5154 1.47798 19.2498 1.65471 19.0461C1.83144 18.8424 2.08149 18.7171 2.35013 18.6978H17.9478C18.0852 18.699 18.2211 18.7274 18.3476 18.7812C18.4741 18.8351 18.5889 18.9134 18.6852 19.0117C18.7815 19.11 18.8576 19.2264 18.909 19.3542C18.9605 19.4819 18.9863 19.6187 18.9851 19.7564Z" fill="#008AD7"/>
<path d="M10.9979 12.403C11.0573 11.7626 10.9048 11.1204 10.5639 10.5754C10.2231 10.0305 9.71284 9.61305 9.11191 9.38758L6.28283 8.0264C5.89449 7.84779 5.56399 7.5635 5.32893 7.20592C5.09383 6.84829 4.96367 6.43169 4.95315 6.00355V3.35682C4.95315 2.61006 5.52839 2.51554 6.27339 2.86528L10.0455 4.68964C10.6589 4.97427 11.2019 5.39137 11.6355 5.91105C12.0692 6.43073 12.3828 7.04011 12.5539 7.69557C12.9878 6.41455 13.8912 5.34674 15.0813 4.70855L18.9476 2.33593C19.6832 1.87276 20.2679 2.09017 20.2679 2.82747V5.47421C20.2508 5.91682 20.1204 6.34758 19.8892 6.72506C19.658 7.10251 19.3337 7.41393 18.9476 7.6294L16.0337 9.40652C15.4717 9.68234 14.9975 10.1097 14.6643 10.6407C14.3312 11.1717 14.1523 11.7852 14.1476 12.4124H19.3437C19.4576 12.4111 19.5705 12.4328 19.6758 12.4762C19.7811 12.5196 19.8767 12.5837 19.9568 12.6649C20.0368 12.746 20.0998 12.8425 20.1419 12.9485C20.184 13.0545 20.2044 13.168 20.2019 13.2821V16.4204C20.2088 16.5289 20.1926 16.6377 20.1542 16.7395C20.1159 16.8413 20.0564 16.9337 19.9797 17.0106C19.903 17.0875 19.8107 17.1471 19.7092 17.1856C19.6077 17.224 19.4992 17.2402 19.3908 17.2333H1.31307C1.19964 17.2346 1.08711 17.2129 0.982292 17.1694C0.877474 17.126 0.78253 17.0616 0.703205 16.9803C0.623879 16.8991 0.561814 16.8025 0.520759 16.6965C0.479705 16.5905 0.460514 16.4773 0.464346 16.3636V13.2348C0.461768 13.1211 0.482204 13.0082 0.524417 12.9026C0.56663 12.7971 0.629747 12.7012 0.709952 12.6208C0.790158 12.5404 0.88579 12.4772 0.991073 12.4348C1.09635 12.3925 1.2091 12.372 1.3225 12.3747L10.9979 12.403Z" fill="#00CD00"/>
</svg>
