<svg width="128" height="32" viewBox="0 0 128 32" fill="none" xmlns="http://www.w3.org/2000/svg">
<path d="M50.0645 14.6874H52.336C52.4649 14.6743 53.4722 14.5543 53.7174 13.4225L53.7183 13.4317C54.347 11.1688 56.0985 9.38326 58.3249 8.73405H58.3218C58.333 8.73178 58.3439 8.72722 58.3569 8.72381C58.3768 8.71926 58.4007 8.71243 58.4223 8.70503C59.4328 8.42167 59.5549 7.47942 59.5675 7.33831V5.02423C54.4475 5.33035 50.3502 9.49195 50.0645 14.6874Z" fill="#3797C2"/>
<path d="M67.8784 15.7854C67.7482 15.7956 66.7431 15.9163 66.497 17.048L66.4952 17.0423C65.8687 19.3017 64.1155 21.0884 61.8895 21.7365L61.8931 21.7376C61.88 21.7387 61.8692 21.7433 61.8593 21.7467C61.8359 21.7547 61.8156 21.7609 61.793 21.7644C60.7803 22.05 60.6586 22.9923 60.646 23.1311V25.4457C65.7687 25.1413 69.8633 20.9792 70.15 15.7849H67.8784V15.7854Z" fill="#F48232"/>
<path d="M58.3218 21.7379L58.3294 21.7368C56.1016 21.0887 54.347 19.3072 53.7174 17.0472V17.0483C53.7151 17.0352 53.7093 17.0261 53.707 17.0159C53.7021 16.9948 53.6953 16.9749 53.6917 16.9561C53.4105 15.9137 52.4599 15.7959 52.336 15.7857H50.0645C50.3502 20.98 54.4475 25.1416 59.5675 25.4466V23.132C59.5549 22.9868 59.4283 21.9832 58.3218 21.7379Z" fill="#43B54B"/>
<path d="M68.9615 10.9522L68.9697 10.9499C66.7432 10.303 64.9872 8.52034 64.3585 6.26031V6.26259C64.3563 6.25064 64.3531 6.2404 64.3481 6.23016C64.3436 6.20911 64.3369 6.19033 64.3328 6.16927C64.0516 5.12802 63.1024 5.01024 62.9762 5H60.7056C60.9927 10.192 65.0882 14.3571 70.2091 14.6609V12.3485C70.1956 12.2017 70.0707 11.1969 68.9615 10.9522Z" fill="#BD298B"/>
<path d="M81.1702 25.2218V17.0534C81.1702 15.5586 80.9471 14.5116 80.5036 13.9136C80.0592 13.3145 79.316 13.0158 78.2722 13.0158C77.7119 13.0158 77.1247 13.187 76.5131 13.5267C75.901 13.8681 75.4309 14.2869 75.1024 14.7848V25.2212H72.6465V11.1813H74.3267L75.1024 12.9896C75.9136 11.6092 77.2378 10.9179 79.0735 10.9179C82.109 10.9179 83.6261 12.7882 83.6261 16.5287V25.2212H81.1702V25.2218Z" fill="#41413E"/>
<path d="M88.6219 21.4664C89.156 21.4664 89.6139 21.6575 89.993 22.0433C90.3715 22.428 90.5617 22.8911 90.5617 23.4322C90.5617 23.9745 90.3715 24.4399 89.993 24.8291C89.6135 25.2171 89.156 25.4123 88.6219 25.4123C88.0878 25.4123 87.6308 25.2166 87.2509 24.8291C86.8718 24.4399 86.6816 23.9745 86.6816 23.4322C86.6816 22.8911 86.8718 22.4274 87.2509 22.0433C87.6308 21.6575 88.0874 21.4664 88.6219 21.4664Z" fill="#41413E"/>
<path d="M96.663 11.2062L96.8414 13.0463C97.2935 12.3811 97.8663 11.865 98.5613 11.4975C99.2559 11.1299 100.064 10.9461 100.984 10.9461C101.905 10.9461 102.695 11.1624 103.355 11.5947C104.016 12.0266 104.513 12.6747 104.845 13.539C105.28 12.7441 105.855 12.1131 106.571 11.6466C107.286 11.18 108.123 10.9467 109.077 10.9467C110.483 10.9467 111.595 11.4372 112.414 12.4181C113.232 13.399 113.641 14.8739 113.641 16.8437V25.2295H111.122V16.8181C111.122 15.4354 110.889 14.4574 110.42 13.8827C109.951 13.308 109.252 13.0206 108.323 13.0206C107.462 13.0206 106.765 13.3228 106.233 13.9276C105.7 14.5325 105.386 15.2972 105.293 16.2218V16.3254V25.2295H102.761V16.8181C102.761 15.5043 102.52 14.5433 102.038 13.9345C101.557 13.3256 100.864 13.0212 99.9612 13.0212C99.1941 13.0212 98.5631 13.1806 98.0687 13.5009C97.5743 13.8207 97.1948 14.2701 96.9316 14.8482V25.2301H94.4126V11.2062H96.663Z" fill="#41413E"/>
<path d="M121.991 16.3777L124.932 11.2061H127.872L123.384 18.1404L128 25.23H125.111L122.042 19.9293L118.973 25.23H116.059L120.674 18.1404L116.187 11.2061H119.089L121.991 16.3777Z" fill="#41413E"/>
<path d="M0 21.4891V5.55621H2.47528V21.0663C2.47528 21.8237 2.68913 22.4211 3.11908 22.8547C3.54959 23.2911 4.112 23.5096 4.80517 23.5096V25.7531C1.60248 25.7531 0 24.3312 0 21.4891Z" fill="#40413E"/>
<path d="M19.4165 18.6639H9.36323C9.36323 20.3191 9.8106 21.5891 10.7042 22.479C11.4945 23.2551 12.5109 23.6415 13.7519 23.6415C15.167 23.6415 16.3479 23.2227 17.2942 22.3857L18.336 24.1962C17.9538 24.582 17.3672 24.9177 16.5786 25.1999C15.5879 25.5698 14.4861 25.753 13.2704 25.753C11.5175 25.753 10.0278 25.1504 8.80422 23.9442C7.43972 22.6173 6.7583 20.8284 6.7583 18.5854C6.7583 16.2514 7.45712 14.3823 8.85529 12.9763C10.1053 11.716 11.5848 11.0867 13.2951 11.0867C15.2837 11.0867 16.8413 11.6557 17.9706 12.7897C19.0634 13.8821 19.6118 15.3296 19.6118 17.1345C19.6118 17.6864 19.545 18.1985 19.4165 18.6639ZM13.4135 13.1999C12.3095 13.1999 11.3856 13.5612 10.6396 14.2805C9.92733 14.9672 9.52377 15.8224 9.42836 16.8432H17.1511C17.1511 15.8304 16.8374 14.9848 16.2127 14.3072C15.5279 13.5681 14.5933 13.1999 13.4135 13.1999Z" fill="#40413E"/>
<path d="M30.7978 25.489V17.2648C30.7978 15.7598 30.575 14.7049 30.1277 14.1035C29.6792 13.5009 28.931 13.1988 27.8825 13.1988C27.3156 13.1988 26.7257 13.3706 26.1099 13.7131C25.4936 14.0557 25.0205 14.479 24.691 14.9815V25.489H22.2163V11.3513H23.9091L24.6916 13.1726C25.5077 11.7831 26.8396 11.0867 28.6891 11.0867C31.7442 11.0867 33.2731 12.9701 33.2731 16.7373V25.489H30.7978Z" fill="#40413E"/>
<path d="M81.0852 25.489V17.2648C81.0852 15.7598 80.8608 14.7049 80.4132 14.1035C79.9661 13.5009 79.2175 13.1988 78.1669 13.1988C77.6013 13.1988 77.0118 13.3706 76.3961 13.7131C75.7791 14.0557 75.3067 14.479 74.9773 14.9815V25.489H72.5029V11.3513H74.1953L74.9777 13.1726C75.794 11.7831 77.1262 11.0867 78.9741 11.0867C82.0308 11.0867 83.5587 12.9701 83.5587 16.7373V25.489H81.0852Z" fill="#40413E"/>
<path d="M45.629 25.4766V24.4336C44.7698 25.3042 43.5198 25.7395 41.8791 25.7395C40.1347 25.7395 38.718 25.1056 37.633 23.839C36.5492 22.5713 36.0059 20.8825 36.0059 18.7705C36.0059 16.6487 36.6311 14.8399 37.8806 13.3372C39.1317 11.8373 40.6207 11.0862 42.3473 11.0862C43.7898 11.0862 44.8832 11.4322 45.6299 12.115V5.55621H48.1038V25.4766H45.629ZM45.629 14.6265C45.0044 13.674 44.149 13.2006 43.064 13.2006C41.7361 13.2006 40.6612 13.7008 39.8411 14.7033C39.02 15.7081 38.6102 16.9844 38.6102 18.5332C38.6102 21.9386 40.1386 23.6422 43.1948 23.6422C43.5849 23.6422 44.0542 23.5164 44.6014 23.2655C45.1499 23.0151 45.4915 22.7488 45.6299 22.4666V14.6265H45.629Z" fill="#40413E"/>
<path d="M49.9937 15.1718H52.2774C52.4081 15.1593 53.4203 15.0381 53.6682 13.9001L53.6696 13.9075C54.3019 11.631 56.0646 9.83467 58.3055 9.18204H58.3024C58.3141 9.17863 58.324 9.17407 58.3366 9.17066C58.3573 9.16611 58.3803 9.15814 58.4033 9.15188C59.421 8.86625 59.5431 7.91831 59.5567 7.77607V5.44775C54.4024 5.75387 50.2817 9.94337 49.9937 15.1718Z" fill="#3797C2"/>
<path d="M67.9196 16.2765C67.7903 16.2879 66.7766 16.4096 66.5292 17.5476L66.5274 17.5408C65.8969 19.8156 64.1333 21.6142 61.8937 22.2657L61.8969 22.2668C61.8843 22.2697 61.8739 22.2736 61.8617 22.2777C61.8378 22.2839 61.8185 22.2902 61.7959 22.2958C60.7773 22.5815 60.6543 23.53 60.6426 23.6705V26C65.7964 25.6933 69.9176 21.5044 70.2051 16.2765H67.9196Z" fill="#F38231"/>
<path d="M58.3024 22.2668L58.31 22.2657C56.0691 21.6142 54.3019 19.8207 53.6696 17.5454V17.5482C53.666 17.5345 53.6615 17.5249 53.6588 17.5141C53.6543 17.4941 53.6471 17.4742 53.643 17.4538C53.3595 16.4051 52.4045 16.2873 52.2778 16.2765H49.9937C50.2808 21.5044 54.4024 25.6927 59.5558 26V23.6705C59.5431 23.5249 59.4151 22.5143 58.3024 22.2668Z" fill="#40B44A"/>
<path d="M69.01 11.4385L69.0181 11.4374C66.7767 10.7859 65.0109 8.99243 64.3785 6.7176V6.71988C64.3745 6.70793 64.3713 6.69655 64.3673 6.68631C64.3614 6.66469 64.356 6.64648 64.351 6.62543C64.068 5.57735 63.1139 5.45957 62.9868 5.44989H60.7021C60.9897 10.6755 65.1118 14.8656 70.2647 15.1717V12.8422C70.2516 12.6954 70.1259 11.6855 69.01 11.4385Z" fill="#BE248B"/>
</svg>
