<svg width="204" height="28" viewBox="0 0 204 28" fill="none" xmlns="http://www.w3.org/2000/svg">
<path d="M27 13.6376C27 6.14143 21.0836 0.0807283 13.6684 0.000982292C7.19987 -0.0787637 1.52015 4.706 0.257994 11.0857C-0.215316 13.3186 0.0213392 15.392 0.494649 17.3059C0.652419 17.0666 0.731304 16.9071 0.889074 16.6679C4.75444 10.8464 13.0374 8.37432 13.0374 8.37432L11.3019 6.30092H22.5036L17.6916 13.797L15.1673 10.8464C15.1673 10.8464 7.90984 13.8768 7.0421 19.778C6.64768 22.4894 7.43653 25.0412 11.3019 26.3969C13.7473 27.2741 16.4294 27.1944 18.796 26.1577C23.6868 24.0045 27 19.2198 27 13.6376Z" fill="url(#paint0_linear_144_848)"/>
<path d="M33 20.3333V9.27273C33 7.89899 33.3879 6.82828 34.1638 6.06061C34.9601 5.27273 36.0524 4.87879 37.4408 4.87879H41.7591V8.42424H38.1758C37.9104 8.42424 37.6756 8.51515 37.4714 8.69697C37.2877 8.87879 37.1958 9.11111 37.1958 9.39394V20.3333H33Z" fill="#3E348B"/>
<path d="M51.9406 20.3333C50.1643 20.3333 48.6125 20 47.2854 19.3333C45.9787 18.6465 44.9578 17.7172 44.2228 16.5455C43.5082 15.3737 43.1509 14.0606 43.1509 12.6061C43.1509 10.9697 43.4878 9.54545 44.1615 8.33333C44.8353 7.12121 45.7541 6.18182 46.9179 5.51515C48.0817 4.84848 49.3986 4.51515 50.8687 4.51515C52.6246 4.51515 54.0436 4.87879 55.1257 5.60606C56.2282 6.33333 57.0347 7.31313 57.5452 8.54545C58.0556 9.75758 58.3108 11.1111 58.3108 12.6061C58.3108 12.8081 58.3006 13.0505 58.2802 13.3333C58.2598 13.596 58.2291 13.798 58.1883 13.9394H47.6223C47.7856 14.5657 48.0613 15.0909 48.4492 15.5152C48.8576 15.9394 49.3578 16.2626 49.9499 16.4848C50.5624 16.6869 51.2464 16.7879 52.0018 16.7879H56.3507V20.3333H51.9406ZM47.5917 11.1515H54.115C54.0742 10.7677 54.0027 10.4141 53.9007 10.0909C53.7986 9.74748 53.6556 9.44444 53.4719 9.18182C53.2881 8.91919 53.0737 8.69697 52.8287 8.51515C52.5837 8.33333 52.2979 8.19192 51.9712 8.09091C51.6445 7.9899 51.2872 7.93939 50.8993 7.93939C50.3889 7.93939 49.9295 8.0303 49.5211 8.21212C49.1332 8.39394 48.8065 8.63636 48.5411 8.93939C48.2757 9.24242 48.0613 9.58586 47.8979 9.9697C47.755 10.3535 47.6529 10.7475 47.5917 11.1515Z" fill="#3E348B"/>
<path d="M69.3523 4.51515C70.6794 4.51515 71.8534 4.72727 72.8743 5.15151C73.8951 5.55555 74.7527 6.14141 75.4468 6.90909C76.141 7.65657 76.6719 8.54545 77.0394 9.57576C77.4069 10.5859 77.5907 11.697 77.5907 12.9091C77.5907 14.4242 77.2742 15.7677 76.6413 16.9394C76.0287 18.1111 75.161 19.0303 74.0381 19.697C72.9151 20.3636 71.588 20.697 70.0567 20.697C69.4033 20.697 68.7704 20.6061 68.1578 20.4242C67.5657 20.2424 67.0247 19.9798 66.5347 19.6364C66.0651 19.2929 65.6669 18.8889 65.3402 18.4242H65.3096V27H61.1138V12.9091C61.1138 11.1919 61.4507 9.70707 62.1245 8.45455C62.7983 7.20202 63.7477 6.23232 64.9727 5.54545C66.2182 4.85859 67.678 4.51515 69.3523 4.51515ZM69.3523 8.06061C68.5356 8.06061 67.8209 8.26263 67.2084 8.66667C66.6163 9.07071 66.1569 9.61616 65.8302 10.303C65.524 10.9899 65.3709 11.7576 65.3709 12.6061C65.3709 13.4545 65.524 14.2222 65.8302 14.9091C66.1569 15.596 66.6163 16.1414 67.2084 16.5455C67.8209 16.9495 68.5356 17.1515 69.3523 17.1515C70.1894 17.1515 70.904 16.9495 71.4961 16.5455C72.0882 16.1414 72.5374 15.596 72.8436 14.9091C73.1703 14.2222 73.3336 13.4545 73.3336 12.6061C73.3336 11.7576 73.1703 10.9899 72.8436 10.303C72.5374 9.61616 72.0882 9.07071 71.4961 8.66667C70.904 8.26263 70.1894 8.06061 69.3523 8.06061Z" fill="#3E348B"/>
<path d="M80.4944 20.3333V9.27273C80.4944 7.89899 80.8824 6.82828 81.6582 6.06061C82.4545 5.27273 83.5468 4.87879 84.9352 4.87879H89.2535V8.42424H85.6702C85.4048 8.42424 85.17 8.51515 84.9658 8.69697C84.7821 8.87879 84.6902 9.11111 84.6902 9.39394V20.3333H80.4944Z" fill="#3E348B"/>
<path d="M99.435 20.3333C97.6587 20.3333 96.107 20 94.7798 19.3333C93.4731 18.6465 92.4522 17.7172 91.7172 16.5455C91.0026 15.3737 90.6453 14.0606 90.6453 12.6061C90.6453 10.9697 90.9822 9.54545 91.656 8.33333C92.3297 7.12121 93.2485 6.18182 94.4123 5.51515C95.5761 4.84848 96.893 4.51515 98.3631 4.51515C100.119 4.51515 101.538 4.87879 102.62 5.60606C103.723 6.33333 104.529 7.31313 105.04 8.54545C105.55 9.75758 105.805 11.1111 105.805 12.6061C105.805 12.8081 105.795 13.0505 105.775 13.3333C105.754 13.596 105.724 13.798 105.683 13.9394H95.1167C95.2801 14.5657 95.5557 15.0909 95.9436 15.5152C96.352 15.9394 96.8522 16.2626 97.4443 16.4848C98.0568 16.6869 98.7408 16.7879 99.4963 16.7879H103.845V20.3333H99.435ZM95.0861 11.1515H101.609C101.569 10.7677 101.497 10.4141 101.395 10.0909C101.293 9.74748 101.15 9.44444 100.966 9.18182C100.783 8.91919 100.568 8.69697 100.323 8.51515C100.078 8.33333 99.7923 8.19192 99.4656 8.09091C99.1389 7.9899 98.7816 7.93939 98.3937 7.93939C97.8833 7.93939 97.4239 8.0303 97.0155 8.21212C96.6276 8.39394 96.3009 8.63636 96.0355 8.93939C95.7701 9.24242 95.5557 9.58586 95.3924 9.9697C95.2494 10.3535 95.1474 10.7475 95.0861 11.1515Z" fill="#3E348B"/>
<path d="M108.823 20.3333V16.7879H116.449C116.694 16.7879 116.908 16.7374 117.092 16.6364C117.296 16.5354 117.449 16.3939 117.551 16.2121C117.674 16.0303 117.735 15.8283 117.735 15.6061C117.735 15.3636 117.674 15.1515 117.551 14.9697C117.449 14.7879 117.296 14.6465 117.092 14.5455C116.908 14.4242 116.694 14.3636 116.449 14.3636H113.508C112.508 14.3636 111.599 14.2121 110.783 13.9091C109.986 13.5859 109.343 13.0808 108.853 12.3939C108.384 11.6869 108.149 10.7677 108.149 9.63636C108.149 8.76768 108.363 7.9798 108.792 7.27273C109.241 6.54545 109.833 5.9697 110.568 5.54545C111.324 5.10101 112.151 4.87879 113.049 4.87879H120.369V8.42424H113.447C113.141 8.42424 112.865 8.52525 112.62 8.72727C112.396 8.92929 112.283 9.19192 112.283 9.51515C112.283 9.83838 112.396 10.1111 112.62 10.3333C112.845 10.5354 113.12 10.6364 113.447 10.6364H116.387C117.51 10.6364 118.48 10.8081 119.297 11.1515C120.113 11.4747 120.746 11.9899 121.196 12.697C121.645 13.404 121.869 14.3333 121.869 15.4848C121.869 16.3737 121.645 17.1919 121.196 17.9394C120.746 18.6667 120.144 19.2525 119.389 19.697C118.633 20.1212 117.786 20.3333 116.847 20.3333H108.823Z" fill="#3E348B"/>
<path d="M130.123 20.3333C128.735 20.3333 127.643 19.9394 126.846 19.1515C126.07 18.3636 125.683 17.2929 125.683 15.9394V1H129.878V15.8182C129.878 16.0808 129.97 16.3131 130.154 16.5152C130.358 16.697 130.593 16.7879 130.858 16.7879H134.258V20.3333H130.123ZM123.018 8.42424V4.87879H134.258V8.42424H123.018Z" fill="#3E348B"/>
<path d="M143.031 20.697C141.602 20.697 140.356 20.3333 139.295 19.6061C138.233 18.8788 137.406 17.9091 136.814 16.697C136.242 15.4646 135.956 14.1111 135.956 12.6364C135.956 11.1212 136.283 9.74747 136.936 8.51515C137.61 7.28283 138.57 6.31313 139.815 5.60606C141.061 4.87879 142.551 4.51515 144.287 4.51515C146.043 4.51515 147.523 4.87879 148.728 5.60606C149.932 6.33333 150.851 7.31313 151.484 8.54545C152.117 9.77778 152.433 11.1414 152.433 12.6364V20.3333H148.238V17.7576H148.176C147.87 18.303 147.482 18.798 147.012 19.2424C146.563 19.6869 146.012 20.0404 145.359 20.303C144.705 20.5657 143.929 20.697 143.031 20.697ZM144.225 17.1515C145.042 17.1515 145.747 16.9495 146.339 16.5455C146.931 16.1414 147.38 15.596 147.686 14.9091C148.013 14.202 148.176 13.4242 148.176 12.5758C148.176 11.7273 148.013 10.9697 147.686 10.303C147.38 9.61616 146.931 9.07071 146.339 8.66667C145.747 8.26263 145.042 8.06061 144.225 8.06061C143.388 8.06061 142.664 8.26263 142.051 8.66667C141.459 9.07071 141 9.61616 140.673 10.303C140.367 10.9697 140.213 11.7273 140.213 12.5758C140.213 13.4242 140.367 14.202 140.673 14.9091C141 15.596 141.459 16.1414 142.051 16.5455C142.664 16.9495 143.388 17.1515 144.225 17.1515Z" fill="#3E348B"/>
<path d="M156.405 20.3333V11.1515C156.405 9.93939 156.701 8.82828 157.293 7.81818C157.886 6.80808 158.733 6.0101 159.835 5.42424C160.958 4.81818 162.306 4.51515 163.878 4.51515C164.634 4.51515 165.328 4.60606 165.961 4.78788C166.614 4.9495 167.216 5.19192 167.768 5.51515C168.319 5.83838 168.799 6.22222 169.207 6.66667H169.238C169.666 6.22222 170.156 5.83838 170.708 5.51515C171.259 5.19192 171.861 4.9495 172.515 4.78788C173.168 4.60606 173.872 4.51515 174.628 4.51515C176.2 4.51515 177.537 4.81818 178.64 5.42424C179.763 6.0101 180.62 6.80808 181.212 7.81818C181.805 8.82828 182.101 9.93939 182.101 11.1515V20.3333H177.905V11.1515C177.905 10.5859 177.752 10.0707 177.445 9.60606C177.16 9.14141 176.772 8.76768 176.282 8.48485C175.792 8.20202 175.24 8.06061 174.628 8.06061C174.036 8.06061 173.485 8.20202 172.974 8.48485C172.484 8.76768 172.086 9.14141 171.78 9.60606C171.494 10.0707 171.351 10.5859 171.351 11.1515V20.3333H167.155V11.1515C167.155 10.5859 167.002 10.0707 166.696 9.60606C166.41 9.14141 166.022 8.76768 165.532 8.48485C165.042 8.20202 164.491 8.06061 163.878 8.06061C163.286 8.06061 162.735 8.20202 162.224 8.48485C161.734 8.76768 161.336 9.14141 161.03 9.60606C160.744 10.0707 160.601 10.5859 160.601 11.1515V20.3333H156.405Z" fill="#3E348B"/>
<path d="M193.578 20.697C191.965 20.697 190.525 20.3434 189.26 19.6364C187.994 18.9091 186.993 17.9394 186.258 16.7273C185.523 15.495 185.156 14.1212 185.156 12.6061C185.156 11.0909 185.523 9.72727 186.258 8.51515C186.993 7.28283 187.994 6.31313 189.26 5.60606C190.525 4.87879 191.965 4.51515 193.578 4.51515C195.191 4.51515 196.63 4.87879 197.896 5.60606C199.162 6.31313 200.162 7.28283 200.897 8.51515C201.632 9.72727 202 11.0909 202 12.6061C202 14.1212 201.632 15.495 200.897 16.7273C200.162 17.9394 199.162 18.9091 197.896 19.6364C196.63 20.3434 195.191 20.697 193.578 20.697ZM193.578 17.1515C194.435 17.1515 195.17 16.9495 195.783 16.5455C196.416 16.1414 196.896 15.596 197.222 14.9091C197.569 14.2222 197.743 13.4545 197.743 12.6061C197.743 11.7576 197.569 10.9899 197.222 10.303C196.896 9.61616 196.416 9.07071 195.783 8.66667C195.17 8.26263 194.435 8.06061 193.578 8.06061C192.72 8.06061 191.975 8.26263 191.342 8.66667C190.73 9.07071 190.25 9.61616 189.903 10.303C189.576 10.9899 189.413 11.7576 189.413 12.6061C189.413 13.4545 189.576 14.2222 189.903 14.9091C190.25 15.596 190.73 16.1414 191.342 16.5455C191.975 16.9495 192.72 17.1515 193.578 17.1515Z" fill="#3E348B"/>
<defs>
<linearGradient id="paint0_linear_144_848" x1="4.04112" y1="-1.62228e-06" x2="23.9367" y2="0.706263" gradientUnits="userSpaceOnUse">
<stop stop-color="#F28801"/>
<stop offset="1" stop-color="#EB6317"/>
</linearGradient>
</defs>
</svg>
