<svg width="18" height="16" viewBox="0 0 18 16" fill="none" xmlns="http://www.w3.org/2000/svg">
<path d="M8.59863 0.343983C8.75942 0.00589263 9.24059 0.00589311 9.40137 0.343983L11.4829 4.72099C11.5477 4.85723 11.6772 4.9513 11.8268 4.97082L16.6328 5.59793C17.004 5.64637 17.1527 6.10399 16.8809 6.36138L13.3613 9.69362C13.2518 9.79734 13.2023 9.94955 13.23 10.0979L14.1187 14.8624C14.1873 15.2305 13.7981 15.5133 13.4693 15.3343L9.21252 13.0167C9.08002 12.9446 8.91998 12.9446 8.78748 13.0167L4.53073 15.3343C4.20193 15.5133 3.81265 15.2305 3.8813 14.8624L4.77003 10.0979C4.79769 9.94955 4.74824 9.79734 4.63869 9.69362L1.11914 6.36138C0.847279 6.10399 0.995969 5.64637 1.3672 5.59793L6.17322 4.97082C6.32281 4.9513 6.45229 4.85723 6.51708 4.72099L8.59863 0.343983Z" fill="#C5C0DB"/>
</svg>
