<svg width="20" height="20" viewBox="0 0 20 20" fill="none" xmlns="http://www.w3.org/2000/svg">
<path d="M16.9445 3.04546C15.0972 1.20455 12.6341 0.181824 10.0342 0.181824C4.62902 0.181824 0.250181 4.54546 0.250181 9.93182C0.250181 11.6364 0.729118 13.3409 1.55015 14.7727L0.181763 19.8182L5.38164 18.4546C6.81844 19.2046 8.39209 19.6136 10.0342 19.6136C15.4393 19.6136 19.8181 15.25 19.8181 9.86364C19.7497 7.34092 18.7918 4.88637 16.9445 3.04546ZM14.7551 13.4091C14.5498 13.9545 13.592 14.5 13.113 14.5682C12.7025 14.6364 12.1552 14.6364 11.6078 14.5C11.2657 14.3636 10.7868 14.2273 10.2394 13.9546C7.77632 12.9318 6.20267 10.4773 6.06583 10.2727C5.92899 10.1364 5.03954 8.97728 5.03954 7.75C5.03954 6.52273 5.65531 5.97728 5.86057 5.70455C6.06583 5.43182 6.33951 5.43182 6.54476 5.43182C6.6816 5.43182 6.88686 5.43182 7.0237 5.43182C7.16054 5.43182 7.3658 5.36364 7.57106 5.84091C7.77631 6.31819 8.25525 7.54546 8.32367 7.61364C8.39209 7.75001 8.39209 7.88637 8.32367 8.02273C8.25525 8.1591 8.18683 8.29546 8.04999 8.43182C7.91315 8.56819 7.77631 8.77273 7.70789 8.84091C7.57105 8.97728 7.43422 9.11364 7.57106 9.31819C7.70789 9.59091 8.18683 10.3409 8.93944 11.0227C9.89731 11.8409 10.6499 12.1136 10.9236 12.25C11.1973 12.3864 11.3341 12.3182 11.471 12.1818C11.6078 12.0455 12.0867 11.5 12.2236 11.2273C12.3604 10.9546 12.5657 11.0227 12.7709 11.0909C12.9762 11.1591 14.2077 11.7727 14.413 11.9091C14.6867 12.0455 14.8235 12.1136 14.8919 12.1818C14.9603 12.3864 14.9603 12.8636 14.7551 13.4091Z" fill="white"/>
</svg>
