<?xml version="1.0" encoding="utf-8"?><svg viewBox="0 0 502.66 502.66" xmlns="http://www.w3.org/2000/svg" xmlns:xlink="http://www.w3.org/1999/xlink"><style>:root>svg{display:none}:root>svg:target{display:block}</style><svg viewBox="0 0 31 30" id="arrow-left" xmlns="http://www.w3.org/2000/svg"><path d="M15.5 27.5C22.404 27.5 28 21.904 28 15S22.404 2.5 15.5 2.5 3 8.096 3 15s5.596 12.5 12.5 12.5Z"/><path d="m15.5 10-5 5 5 5m5-5h-10"/></svg><svg viewBox="0 0 16 16" id="eye" xmlns="http://www.w3.org/2000/svg"><path d="M.667 8S3.334 2.667 8 2.667C12.667 2.667 15.334 8 15.334 8S12.667 13.333 8 13.333C3.334 13.333.667 8 .667 8Z"/><path d="M8 10a2 2 0 1 0 0-4 2 2 0 0 0 0 4Z"/></svg><svg viewBox="0 0 502.664 502.664" xml:space="preserve" id="icon" xmlns="http://www.w3.org/2000/svg"><path d="M153.821 358.226 0 274.337v-46.463l153.821-83.414v54.574L46.636 250.523l107.185 53.431v54.272zm26.273 29.358L282.103 115.08h32.227L212.084 387.584h-31.99zm168.749-29.358v-54.272l107.164-52.999-107.164-52.59v-53.927l153.821 83.522v46.183l-153.821 84.083z"/></svg><svg viewBox="0 0 17 18" id="info" xmlns="http://www.w3.org/2000/svg"><path d="M8.333 15.944a6.944 6.944 0 1 0 0-13.888 6.944 6.944 0 0 0 0 13.889Zm.001-4.166V9m0-2.778h.006"/></svg><svg viewBox="0 0 18 16" id="star" xmlns="http://www.w3.org/2000/svg"><path d="M8.599.344a.444.444 0 0 1 .802 0l2.082 4.377c.065.136.194.23.344.25l4.806.627c.371.048.52.506.248.763l-3.52 3.333a.444.444 0 0 0-.131.404l.889 4.764a.444.444 0 0 1-.65.472l-4.256-2.317a.445.445 0 0 0-.426 0l-4.256 2.317a.444.444 0 0 1-.65-.472l.889-4.764a.444.444 0 0 0-.131-.404L1.119 6.36a.444.444 0 0 1 .248-.763l4.806-.627c.15-.02.28-.114.344-.25L8.6.344Z"/></svg><svg viewBox="0 0 20 20" id="telegram" xmlns="http://www.w3.org/2000/svg"><path d="m.775 9.682 4.207 1.563 1.64 5.26c.07.355.498.426.784.212L9.758 14.8c.214-.214.57-.214.856 0l4.206 3.056c.285.213.713.07.784-.285l3.137-14.924c.071-.355-.285-.71-.642-.568L.775 8.758c-.427.142-.427.782 0 .924Zm5.632.781 8.27-5.045c.143-.071.285.142.143.213l-6.773 6.325c-.214.213-.428.497-.428.853l-.213 1.705c0 .213-.357.285-.428 0l-.856-3.127c-.214-.355-.071-.781.285-.924Z"/></svg><svg viewBox="0 0 32 32" id="up" xmlns="http://www.w3.org/2000/svg"><path d="m24 20-8-8-8 8"/></svg><svg viewBox="0 0 20 20" id="whatsapp" xmlns="http://www.w3.org/2000/svg"><path d="M16.945 3.045a9.75 9.75 0 0 0-6.91-2.863C4.628.182.25 4.545.25 9.932c0 1.704.48 3.409 1.3 4.84L.182 19.819l5.2-1.363a9.999 9.999 0 0 0 4.652 1.159c5.405 0 9.784-4.364 9.784-9.75-.068-2.523-1.026-4.978-2.873-6.819Zm-2.19 10.364c-.205.545-1.163 1.091-1.642 1.16-.41.067-.958.067-1.505-.069-.342-.136-.821-.273-1.369-.545-2.463-1.023-4.036-3.478-4.173-3.682-.137-.137-1.026-1.296-1.026-2.523s.615-1.773.82-2.045c.206-.273.48-.273.685-.273h.479c.137 0 .342-.068.547.409.205.477.684 1.704.753 1.773a.433.433 0 0 1 0 .409 1.426 1.426 0 0 1-.274.409c-.137.136-.274.34-.342.409-.137.136-.274.273-.137.477.137.273.616 1.023 1.368 1.705.958.818 1.71 1.09 1.985 1.227.273.136.41.068.547-.068.137-.136.616-.682.753-.955.136-.272.342-.204.547-.136.205.068 1.437.682 1.642.818.274.136.41.205.479.273.068.204.068.682-.137 1.227Z"/></svg></svg>